<svg xmlns="http://www.w3.org/2000/svg" viewBox="0 0 800 800" width="800" height="800"><g stroke-width=".5" stroke="rgba(255, 255, 255, 0.05)" fill="none"><rect width="66.66666667" height="66.66666667"/><rect width="66.66666667" height="66.66666667" x="66.66666667"/><rect width="66.66666667" height="66.66666667" x="133.33333333"/><rect width="66.66666667" height="66.66666667" x="200"/><rect width="66.66666667" height="66.66666667" x="266.66666667"/><rect width="66.66666667" height="66.66666667" x="333.33333333"/><rect width="66.66666667" height="66.66666667" x="400"/><rect width="66.66666667" height="66.66666667" x="466.66666667"/><rect width="66.66666667" height="66.66666667" x="533.33333333"/><rect width="66.66666667" height="66.66666667" x="600"/><rect width="66.66666667" height="66.66666667" x="666.66666667"/><rect width="66.66666667" height="66.66666667" x="733.33333333"/><rect width="66.66666667" height="66.66666667" x="800"/><rect width="66.66666667" height="66.66666667" y="66.66666667"/><rect width="66.66666667" height="66.66666667" x="66.66666667" y="66.66666667"/><rect width="66.66666667" height="66.66666667" x="133.33333333" y="66.66666667"/><rect width="66.66666667" height="66.66666667" x="200" y="66.66666667"/><rect width="66.66666667" height="66.66666667" x="266.66666667" y="66.66666667"/><rect width="66.66666667" height="66.66666667" x="333.33333333" y="66.66666667"/><rect width="66.66666667" height="66.66666667" x="400" y="66.66666667"/><rect width="66.66666667" height="66.66666667" x="466.66666667" y="66.66666667"/><rect width="66.66666667" height="66.66666667" x="533.33333333" y="66.66666667"/><rect width="66.66666667" height="66.66666667" x="600" y="66.66666667"/><rect width="66.66666667" height="66.66666667" x="666.66666667" y="66.66666667"/><rect width="66.66666667" height="66.66666667" x="733.33333333" y="66.66666667"/><rect width="66.66666667" height="66.66666667" x="800" y="66.66666667"/><rect width="66.66666667" height="66.66666667" y="133.33333333"/><rect width="66.66666667" height="66.66666667" x="66.66666667" y="133.33333333"/><rect width="66.66666667" height="66.66666667" x="133.33333333" y="133.33333333"/><rect width="66.66666667" height="66.66666667" x="200" y="133.33333333"/><rect width="66.66666667" height="66.66666667" x="266.66666667" y="133.33333333"/><rect width="66.66666667" height="66.66666667" x="333.33333333" y="133.33333333"/><rect width="66.66666667" height="66.66666667" x="400" y="133.33333333"/><rect width="66.66666667" height="66.66666667" x="466.66666667" y="133.33333333"/><rect width="66.66666667" height="66.66666667" x="533.33333333" y="133.33333333"/><rect width="66.66666667" height="66.66666667" x="600" y="133.33333333"/><rect width="66.66666667" height="66.66666667" x="666.66666667" y="133.33333333"/><rect width="66.66666667" height="66.66666667" x="733.33333333" y="133.33333333"/><rect width="66.66666667" height="66.66666667" x="800" y="133.33333333"/><rect width="66.66666667" height="66.66666667" y="200"/><rect width="66.66666667" height="66.66666667" x="66.66666667" y="200"/><rect width="66.66666667" height="66.66666667" x="133.33333333" y="200"/><rect width="66.66666667" height="66.66666667" x="200" y="200"/><rect width="66.66666667" height="66.66666667" x="266.66666667" y="200"/><rect width="66.66666667" height="66.66666667" x="333.33333333" y="200"/><rect width="66.66666667" height="66.66666667" x="400" y="200"/><rect width="66.66666667" height="66.66666667" x="466.66666667" y="200"/><rect width="66.66666667" height="66.66666667" x="533.33333333" y="200"/><rect width="66.66666667" height="66.66666667" x="600" y="200"/><rect width="66.66666667" height="66.66666667" x="666.66666667" y="200"/><rect width="66.66666667" height="66.66666667" x="733.33333333" y="200"/><rect width="66.66666667" height="66.66666667" x="800" y="200"/><rect width="66.66666667" height="66.66666667" y="266.66666667"/><rect width="66.66666667" height="66.66666667" x="66.66666667" y="266.66666667"/><rect width="66.66666667" height="66.66666667" x="133.33333333" y="266.66666667"/><rect width="66.66666667" height="66.66666667" x="200" y="266.66666667"/><rect width="66.66666667" height="66.66666667" x="266.66666667" y="266.66666667"/><rect width="66.66666667" height="66.66666667" x="333.33333333" y="266.66666667"/><rect width="66.66666667" height="66.66666667" x="400" y="266.66666667"/><rect width="66.66666667" height="66.66666667" x="466.66666667" y="266.66666667"/><rect width="66.66666667" height="66.66666667" x="533.33333333" y="266.66666667"/><rect width="66.66666667" height="66.66666667" x="600" y="266.66666667"/><rect width="66.66666667" height="66.66666667" x="666.66666667" y="266.66666667"/><rect width="66.66666667" height="66.66666667" x="733.33333333" y="266.66666667"/><rect width="66.66666667" height="66.66666667" x="800" y="266.66666667"/><rect width="66.66666667" height="66.66666667" y="333.33333333"/><rect width="66.66666667" height="66.66666667" x="66.66666667" y="333.33333333"/><rect width="66.66666667" height="66.66666667" x="133.33333333" y="333.33333333"/><rect width="66.66666667" height="66.66666667" x="200" y="333.33333333"/><rect width="66.66666667" height="66.66666667" x="266.66666667" y="333.33333333"/><rect width="66.66666667" height="66.66666667" x="333.33333333" y="333.33333333"/><rect width="66.66666667" height="66.66666667" x="400" y="333.33333333"/><rect width="66.66666667" height="66.66666667" x="466.66666667" y="333.33333333"/><rect width="66.66666667" height="66.66666667" x="533.33333333" y="333.33333333"/><rect width="66.66666667" height="66.66666667" x="600" y="333.33333333"/><rect width="66.66666667" height="66.66666667" x="666.66666667" y="333.33333333"/><rect width="66.66666667" height="66.66666667" x="733.33333333" y="333.33333333"/><rect width="66.66666667" height="66.66666667" x="800" y="333.33333333"/><rect width="66.66666667" height="66.66666667" y="400"/><rect width="66.66666667" height="66.66666667" x="66.66666667" y="400"/><rect width="66.66666667" height="66.66666667" x="133.33333333" y="400"/><rect width="66.66666667" height="66.66666667" x="200" y="400"/><rect width="66.66666667" height="66.66666667" x="266.66666667" y="400"/><rect width="66.66666667" height="66.66666667" x="333.33333333" y="400"/><rect width="66.66666667" height="66.66666667" x="400" y="400"/><rect width="66.66666667" height="66.66666667" x="466.66666667" y="400"/><rect width="66.66666667" height="66.66666667" x="533.33333333" y="400"/><rect width="66.66666667" height="66.66666667" x="600" y="400"/><rect width="66.66666667" height="66.66666667" x="666.66666667" y="400"/><rect width="66.66666667" height="66.66666667" x="733.33333333" y="400"/><rect width="66.66666667" height="66.66666667" x="800" y="400"/><rect width="66.66666667" height="66.66666667" y="466.66666667"/><rect width="66.66666667" height="66.66666667" x="66.66666667" y="466.66666667"/><rect width="66.66666667" height="66.66666667" x="133.33333333" y="466.66666667"/><rect width="66.66666667" height="66.66666667" x="200" y="466.66666667"/><rect width="66.66666667" height="66.66666667" x="266.66666667" y="466.66666667"/><rect width="66.66666667" height="66.66666667" x="333.33333333" y="466.66666667"/><rect width="66.66666667" height="66.66666667" x="400" y="466.66666667"/><rect width="66.66666667" height="66.66666667" x="466.66666667" y="466.66666667"/><rect width="66.66666667" height="66.66666667" x="533.33333333" y="466.66666667"/><rect width="66.66666667" height="66.66666667" x="600" y="466.66666667"/><rect width="66.66666667" height="66.66666667" x="666.66666667" y="466.66666667"/><rect width="66.66666667" height="66.66666667" x="733.33333333" y="466.66666667"/><rect width="66.66666667" height="66.66666667" x="800" y="466.66666667"/><rect width="66.66666667" height="66.66666667" y="533.33333333"/><rect width="66.66666667" height="66.66666667" x="66.66666667" y="533.33333333"/><rect width="66.66666667" height="66.66666667" x="133.33333333" y="533.33333333"/><rect width="66.66666667" height="66.66666667" x="200" y="533.33333333"/><rect width="66.66666667" height="66.66666667" x="266.66666667" y="533.33333333"/><rect width="66.66666667" height="66.66666667" x="333.33333333" y="533.33333333"/><rect width="66.66666667" height="66.66666667" x="400" y="533.33333333"/><rect width="66.66666667" height="66.66666667" x="466.66666667" y="533.33333333"/><rect width="66.66666667" height="66.66666667" x="533.33333333" y="533.33333333"/><rect width="66.66666667" height="66.66666667" x="600" y="533.33333333"/><rect width="66.66666667" height="66.66666667" x="666.66666667" y="533.33333333"/><rect width="66.66666667" height="66.66666667" x="733.33333333" y="533.33333333"/><rect width="66.66666667" height="66.66666667" x="800" y="533.33333333"/><rect width="66.66666667" height="66.66666667" y="600"/><rect width="66.66666667" height="66.66666667" x="66.66666667" y="600"/><rect width="66.66666667" height="66.66666667" x="133.33333333" y="600"/><rect width="66.66666667" height="66.66666667" x="200" y="600"/><rect width="66.66666667" height="66.66666667" x="266.66666667" y="600"/><rect width="66.66666667" height="66.66666667" x="333.33333333" y="600"/><rect width="66.66666667" height="66.66666667" x="400" y="600"/><rect width="66.66666667" height="66.66666667" x="466.66666667" y="600"/><rect width="66.66666667" height="66.66666667" x="533.33333333" y="600"/><rect width="66.66666667" height="66.66666667" x="600" y="600"/><rect width="66.66666667" height="66.66666667" x="666.66666667" y="600"/><rect width="66.66666667" height="66.66666667" x="733.33333333" y="600"/><rect width="66.66666667" height="66.66666667" x="800" y="600"/><rect width="66.66666667" height="66.66666667" y="666.66666667"/><rect width="66.66666667" height="66.66666667" x="66.66666667" y="666.66666667"/><rect width="66.66666667" height="66.66666667" x="133.33333333" y="666.66666667"/><rect width="66.66666667" height="66.66666667" x="200" y="666.66666667"/><rect width="66.66666667" height="66.66666667" x="266.66666667" y="666.66666667"/><rect width="66.66666667" height="66.66666667" x="333.33333333" y="666.66666667"/><rect width="66.66666667" height="66.66666667" x="400" y="666.66666667"/><rect width="66.66666667" height="66.66666667" x="466.66666667" y="666.66666667"/><rect width="66.66666667" height="66.66666667" x="533.33333333" y="666.66666667"/><rect width="66.66666667" height="66.66666667" x="600" y="666.66666667"/><rect width="66.66666667" height="66.66666667" x="666.66666667" y="666.66666667"/><rect width="66.66666667" height="66.66666667" x="733.33333333" y="666.66666667"/><rect width="66.66666667" height="66.66666667" x="800" y="666.66666667"/><rect width="66.66666667" height="66.66666667" y="733.33333333"/><rect width="66.66666667" height="66.66666667" x="66.66666667" y="733.33333333"/><rect width="66.66666667" height="66.66666667" x="133.33333333" y="733.33333333"/><rect width="66.66666667" height="66.66666667" x="200" y="733.33333333"/><rect width="66.66666667" height="66.66666667" x="266.66666667" y="733.33333333"/><rect width="66.66666667" height="66.66666667" x="333.33333333" y="733.33333333"/><rect width="66.66666667" height="66.66666667" x="400" y="733.33333333"/><rect width="66.66666667" height="66.66666667" x="466.66666667" y="733.33333333"/><rect width="66.66666667" height="66.66666667" x="533.33333333" y="733.33333333"/><rect width="66.66666667" height="66.66666667" x="600" y="733.33333333"/><rect width="66.66666667" height="66.66666667" x="666.66666667" y="733.33333333"/><rect width="66.66666667" height="66.66666667" x="733.33333333" y="733.33333333"/><rect width="66.66666667" height="66.66666667" x="800" y="733.33333333"/><rect width="66.66666667" height="66.66666667" y="800"/><rect width="66.66666667" height="66.66666667" x="66.66666667" y="800"/><rect width="66.66666667" height="66.66666667" x="133.33333333" y="800"/><rect width="66.66666667" height="66.66666667" x="200" y="800"/><rect width="66.66666667" height="66.66666667" x="266.66666667" y="800"/><rect width="66.66666667" height="66.66666667" x="333.33333333" y="800"/><rect width="66.66666667" height="66.66666667" x="400" y="800"/><rect width="66.66666667" height="66.66666667" x="466.66666667" y="800"/><rect width="66.66666667" height="66.66666667" x="533.33333333" y="800"/><rect width="66.66666667" height="66.66666667" x="600" y="800"/><rect width="66.66666667" height="66.66666667" x="666.66666667" y="800"/><rect width="66.66666667" height="66.66666667" x="733.33333333" y="800"/><rect width="66.66666667" height="66.66666667" x="800" y="800"/></g></svg>